<svg xmlns="http://www.w3.org/2000/svg" viewBox="0 0 612 612"><defs><style>.cls-1{fill:#fff;}</style></defs><title>instagram</title><g id="Layer_2" data-name="Layer 2"><g id="Layer_1-2" data-name="Layer 1"><path class="cls-1" d="M306,0c-83.11,0-93.53.35-126.16,1.84S125,8.5,105.56,16.07a149.79,149.79,0,0,0-54.2,35.29,150,150,0,0,0-35.3,54.2C8.5,125,3.33,147.27,1.84,179.84S0,222.89,0,306s.35,93.52,1.84,126.16S8.5,487,16.06,506.44a150,150,0,0,0,35.3,54.2,149.93,149.93,0,0,0,54.2,35.29c19.46,7.57,41.71,12.74,74.28,14.23S222.89,612,306,612s93.52-.36,126.16-1.84,54.82-6.66,74.28-14.23a156.42,156.42,0,0,0,89.49-89.49c7.57-19.46,12.74-41.71,14.23-74.28S612,389.1,612,306s-.36-93.53-1.84-126.16S603.5,125,595.93,105.56a150,150,0,0,0-35.29-54.2,149.88,149.88,0,0,0-54.2-35.29C487,8.5,464.73,3.33,432.16,1.84S389.1,0,306,0Zm0,55.14c81.7,0,91.38.31,123.65,1.78,29.83,1.36,46,6.35,56.82,10.54a94.8,94.8,0,0,1,35.18,22.89,94.72,94.72,0,0,1,22.89,35.18c4.19,10.78,9.18,27,10.54,56.82,1.47,32.27,1.78,41.94,1.78,123.65s-.31,91.38-1.78,123.65c-1.36,29.83-6.35,46-10.54,56.82a101.35,101.35,0,0,1-58.07,58.07c-10.78,4.19-27,9.18-56.82,10.54-32.26,1.47-41.94,1.78-123.65,1.78s-91.39-.31-123.65-1.78c-29.84-1.36-46-6.35-56.82-10.54a94.83,94.83,0,0,1-35.19-22.89,94.77,94.77,0,0,1-22.88-35.18c-4.2-10.78-9.18-27-10.54-56.82C55.45,397.38,55.13,387.7,55.13,306s.32-91.38,1.79-123.65c1.36-29.84,6.34-46,10.54-56.82A94.69,94.69,0,0,1,90.34,90.35a94.83,94.83,0,0,1,35.19-22.89c10.78-4.19,27-9.18,56.82-10.54C214.62,55.45,224.29,55.14,306,55.14Z"/><path class="cls-1" d="M306,408A102,102,0,1,1,408,306,102,102,0,0,1,306,408Zm0-259.14A157.14,157.14,0,1,0,463.13,306,157.15,157.15,0,0,0,306,148.86Z"/><path class="cls-1" d="M506.06,142.66a36.72,36.72,0,1,1-36.72-36.72A36.72,36.72,0,0,1,506.06,142.66Z"/></g></g></svg>