<svg xmlns="http://www.w3.org/2000/svg" viewBox="0 0 612 497.28"><defs><style>.cls-1{fill:#fff;}</style></defs><title>twitter</title><g id="Layer_2" data-name="Layer 2"><g id="Layer_1-2" data-name="Layer 1"><path class="cls-1" d="M192.46,497.28c231,0,357.26-191.33,357.26-357.26,0-5.43,0-10.84-.36-16.23A255.65,255.65,0,0,0,612,58.8a250.76,250.76,0,0,1-72.12,19.75A126,126,0,0,0,595.08,9.1a251.58,251.58,0,0,1-79.73,30.48A125.71,125.71,0,0,0,423.8,0C354.85,0,298.12,56.73,298.12,125.68a125.91,125.91,0,0,0,3.25,28.42A356.68,356.68,0,0,1,42.59,22.91C9.46,80,26.6,153.89,81.47,190.52a124.64,124.64,0,0,1-57-15.71v1.59A126,126,0,0,0,125.21,299.48a125.42,125.42,0,0,1-56.69,2.16,126,126,0,0,0,117.31,87.2A252,252,0,0,1,29.89,442.69,255.23,255.23,0,0,1,0,440.88a355.57,355.57,0,0,0,192.46,56.3"/></g></g></svg>